<svg width="163" height="20" viewBox="0 0 163 20" fill="none" xmlns="http://www.w3.org/2000/svg">
  <path d="M146.049 9.99c0 1.599-.406 2.857-1.217 3.773-.807.916-1.93 1.374-3.37 1.374-1.472 0-2.609-.45-3.411-1.347-.798-.902-1.197-2.174-1.197-3.814 0-1.627.402-2.887 1.204-3.78.802-.898 1.941-1.347 3.418-1.347 1.435 0 2.556.455 3.363 1.367.807.911 1.21 2.17 1.21 3.773zm-7.964 0c0 1.353.287 2.38.861 3.082.579.698 1.418 1.046 2.516 1.046 1.107 0 1.944-.348 2.509-1.046.565-.697.847-1.725.847-3.083 0-1.344-.282-2.363-.847-3.055-.561-.698-1.393-1.046-2.495-1.046-1.108 0-1.951.35-2.53 1.052-.574.698-.861 1.714-.861 3.05zM153.24 15v-4.847c0-.61-.139-1.066-.417-1.367-.278-.3-.713-.451-1.305-.451-.784 0-1.358.212-1.723.636-.365.424-.547 1.123-.547 2.098V15h-1.135V7.508h.923l.185 1.025h.054a2.3 2.3 0 0 1 .978-.854 3.144 3.144 0 0 1 1.401-.308c.903 0 1.582.219 2.037.656.456.433.684 1.128.684 2.085V15h-1.135zM159.878 15.137c-1.107 0-1.982-.338-2.625-1.012-.638-.675-.957-1.611-.957-2.81 0-1.207.296-2.167.889-2.877.597-.711 1.396-1.067 2.399-1.067.939 0 1.682.31 2.228.93.547.615.821 1.428.821 2.44v.718h-5.161c.022.88.243 1.547.663 2.003.424.456 1.018.684 1.784.684.807 0 1.604-.17 2.393-.506v1.011a5.83 5.83 0 0 1-1.142.37 6.165 6.165 0 0 1-1.292.116zm-.308-6.816c-.601 0-1.082.196-1.442.588-.356.392-.565.934-.629 1.627h3.917c0-.715-.159-1.262-.478-1.64-.32-.383-.775-.575-1.368-.575zM130 1h1v17h-1V1zM34.018 9.907c0 1.645-.47 2.905-1.409 3.78-.934.876-2.285 1.313-4.053 1.313h-2.83V5.006h3.137c1.632 0 2.899.43 3.801 1.292.902.861 1.354 2.064 1.354 3.61zm-2.202.055c0-2.147-.947-3.22-2.843-3.22h-1.128v6.508h.909c2.042 0 3.062-1.096 3.062-3.288zM40.19 7.214c.283 0 .518.02.705.061l-.158 1.955a2.388 2.388 0 0 0-.615-.068c-.665 0-1.185.171-1.559.513-.369.342-.553.82-.553 1.435V15h-2.085V7.357h1.579l.308 1.286h.102c.237-.429.556-.773.957-1.033a2.37 2.37 0 0 1 1.32-.396zM42.193 5.382c0-.68.379-1.019 1.135-1.019.757 0 1.135.34 1.135 1.019 0 .323-.096.576-.287.759-.187.177-.47.266-.848.266-.756 0-1.135-.342-1.135-1.025zM44.367 15h-2.085V7.357h2.085V15zM48.38 15l-2.912-7.643h2.18l1.477 4.355c.164.551.267 1.073.308 1.565h.04c.023-.437.126-.959.308-1.565l1.47-4.355h2.18L50.52 15h-2.14zM57.697 8.697c-.442 0-.788.142-1.039.424-.25.278-.394.675-.43 1.19h2.925c-.009-.515-.143-.912-.403-1.19-.26-.282-.61-.424-1.053-.424zm.294 6.44c-1.23 0-2.192-.34-2.885-1.019-.692-.679-1.039-1.64-1.039-2.885 0-1.28.32-2.27.957-2.966.643-.702 1.53-1.053 2.66-1.053 1.08 0 1.92.307 2.522.923.602.615.902 1.465.902 2.55v1.011H56.18c.023.593.198 1.055.526 1.388.328.333.788.499 1.38.499.461 0 .896-.048 1.307-.144.41-.095.838-.248 1.285-.458v1.614a4.79 4.79 0 0 1-1.17.403c-.414.091-.92.137-1.517.137zM67.07 7.214c.282 0 .517.02.703.061l-.157 1.955a2.388 2.388 0 0 0-.615-.068c-.665 0-1.185.171-1.559.513-.369.342-.553.82-.553 1.435V15h-2.085V7.357h1.579l.307 1.286h.103c.237-.429.556-.773.957-1.033a2.37 2.37 0 0 1 1.32-.396zM75.225 12.225c0 .902-.326 1.613-.978 2.132-.647.52-1.55.78-2.707.78-1.066 0-2.01-.2-2.83-.602v-1.969c.674.301 1.244.513 1.709.636.47.123.898.185 1.285.185.465 0 .82-.09 1.067-.267.25-.178.376-.442.376-.793a.86.86 0 0 0-.165-.52 1.79 1.79 0 0 0-.485-.444c-.21-.141-.64-.367-1.292-.676-.61-.288-1.069-.563-1.374-.828a3.105 3.105 0 0 1-.731-.922c-.183-.351-.274-.762-.274-1.23 0-.885.299-1.58.896-2.086.601-.506 1.43-.759 2.488-.759.52 0 1.014.062 1.483.185.474.123.969.296 1.484.52l-.684 1.647a9.911 9.911 0 0 0-1.326-.458 4.217 4.217 0 0 0-1.025-.13c-.401 0-.71.093-.923.28a.924.924 0 0 0-.322.732c0 .187.044.35.13.492.087.137.224.271.41.403.192.128.64.36 1.347.697.934.447 1.575.896 1.921 1.347.346.447.52.996.52 1.648zM82.286 15l-.28-.977h-.11c-.223.355-.54.63-.95.827-.41.191-.877.287-1.401.287-.898 0-1.575-.24-2.03-.718-.456-.483-.684-1.176-.684-2.078V7.357h2.085v4.464c0 .552.098.966.294 1.244.196.274.508.41.937.41.583 0 1.004-.193 1.264-.58.26-.392.39-1.04.39-1.942V7.357h2.085V15h-1.6zM90.27 15.137c-.897 0-1.601-.326-2.112-.978h-.11c.074.638.11 1.007.11 1.108v3.096h-2.085V7.357h1.696l.293.992h.096c.488-.757 1.21-1.135 2.167-1.135.903 0 1.609.348 2.12 1.046.51.697.765 1.665.765 2.905 0 .816-.12 1.525-.362 2.126-.237.602-.577 1.06-1.019 1.374-.442.315-.961.472-1.558.472zm-.615-6.255c-.515 0-.89.16-1.128.478-.237.315-.36.837-.369 1.566v.225c0 .82.121 1.409.362 1.764.247.356.634.533 1.163.533.934 0 1.401-.77 1.401-2.31 0-.752-.116-1.315-.349-1.689-.228-.378-.588-.567-1.08-.567zM99.13 15.137c-.898 0-1.602-.326-2.112-.978h-.11c.073.638.11 1.007.11 1.108v3.096h-2.085V7.357h1.695l.294.992h.096c.487-.757 1.21-1.135 2.167-1.135.902 0 1.608.348 2.119 1.046.51.697.765 1.665.765 2.905 0 .816-.12 1.525-.362 2.126-.237.602-.576 1.06-1.019 1.374-.442.315-.961.472-1.558.472zm-.615-6.255c-.515 0-.891.16-1.128.478-.237.315-.36.837-.37 1.566v.225c0 .82.121 1.409.363 1.764.246.356.633.533 1.162.533.934 0 1.401-.77 1.401-2.31 0-.752-.116-1.315-.348-1.689-.228-.378-.588-.567-1.08-.567zM105.453 11.165c0 .757.123 1.329.369 1.716.251.387.657.58 1.217.58.556 0 .955-.19 1.196-.573.246-.388.369-.962.369-1.723 0-.756-.123-1.324-.369-1.702-.246-.378-.649-.567-1.21-.567-.556 0-.957.189-1.203.567-.246.374-.369.941-.369 1.702zm5.284 0c0 1.244-.328 2.217-.984 2.919-.656.702-1.57 1.053-2.741 1.053-.734 0-1.381-.16-1.942-.479a3.233 3.233 0 0 1-1.292-1.387c-.3-.602-.451-1.304-.451-2.106 0-1.249.326-2.22.978-2.912.651-.693 1.567-1.04 2.748-1.04.733 0 1.381.16 1.941.48.561.318.991.776 1.292 1.373.301.597.451 1.297.451 2.099zM116.726 7.214c.282 0 .517.02.704.061l-.158 1.955a2.38 2.38 0 0 0-.615-.068c-.665 0-1.185.171-1.558.513-.37.342-.554.82-.554 1.435V15h-2.085V7.357h1.579l.308 1.286h.102c.237-.429.556-.773.957-1.033a2.373 2.373 0 0 1 1.32-.396zM122.037 13.476c.365 0 .802-.08 1.313-.24v1.552c-.52.232-1.158.349-1.914.349-.834 0-1.443-.21-1.826-.63-.378-.423-.567-1.056-.567-1.9V8.923h-.998V8.04l1.148-.697.602-1.614h1.333v1.627h2.14v1.566h-2.14v3.684c0 .297.082.515.246.657.169.14.39.212.663.212z" fill="#fff"/>
  <path d="M19.515 0H0v19.43h19.515V0z" fill="#3FA9F5"/>
  <path d="m13.516 4.934-6.094-1.11-2.727.85-.664 1.228 2.514 2.502-.782.732-1.732 1.77 2.42 2.432H4.03v2.48l3.676 3.611h11.812v-8.522l-6.003-5.973z" fill="url(#okowfby1aa)"/>
  <path d="M9.248 15.817a6.262 6.262 0 0 0 4.418-1.822 6.207 6.207 0 0 0 1.83-4.398c0-1.65-.658-3.232-1.83-4.4a6.262 6.262 0 0 0-4.418-1.821H4.031v2.526l5.074.07c.981 0 1.922.388 2.616 1.08a3.675 3.675 0 0 1 0 5.208 3.708 3.708 0 0 1-2.616 1.078H4.031v2.48h5.217z" fill="#fff"/>
  <path d="M6.616 8.334H4.03v2.573h2.585V8.334z" fill="#fff"/>
  <defs>
      <linearGradient id="okowfby1aa" x1="-1.626" y1="2.079" x2="2.804" y2="38.733" gradientUnits="userSpaceOnUse">
          <stop stop-color="#0071C2"/>
          <stop offset="1" stop-color="#3FA9F5"/>
      </linearGradient>
  </defs>
</svg>
