<svg id="icn-report-issue" xmlns="http://www.w3.org/2000/svg" xmlns:xlink="http://www.w3.org/1999/xlink" width="96.655" height="82.218" viewBox="0 0 96.655 82.218">
  <defs>
    <linearGradient id="linear-gradient" x1="-0.67" y1="0.885" x2="0.86" y2="-0.503" gradientUnits="objectBoundingBox">
      <stop offset="0" stop-color="#00f2fe"/>
      <stop offset="0.021" stop-color="#03effe"/>
      <stop offset="0.222" stop-color="#24d2fe"/>
      <stop offset="0.554" stop-color="#3cbdfe"/>
      <stop offset="0.796" stop-color="#4ab0fe"/>
      <stop offset="1" stop-color="#4facfe"/>
    </linearGradient>
  </defs>
  <path id="Path_23282" data-name="Path 23282" d="M1482.729,78.006a4.6,4.6,0,0,0-4.009-2.3h0a4.6,4.6,0,0,0-4.009,2.29l-17.139,29.2a4.62,4.62,0,0,0,4.009,6.951h14.034a2.365,2.365,0,1,1,0,4.731h-14.034a9.351,9.351,0,0,1-8.089-14.077l17.139-29.2a9.289,9.289,0,0,1,8.088-4.626h.008a9.288,9.288,0,0,1,8.089,4.638l10.7,18.288a2.365,2.365,0,0,1-4.084,2.388Zm30.02,38.5a2.365,2.365,0,0,1-2.365,2.365h-1.67a11.176,11.176,0,0,1-1.548,3.726l1.224,1.224a2.365,2.365,0,0,1-3.345,3.345l-1.225-1.224a11.172,11.172,0,0,1-3.726,1.548v1.671a2.365,2.365,0,0,1-4.731,0v-1.671a11.172,11.172,0,0,1-3.726-1.548l-1.225,1.224a2.365,2.365,0,0,1-3.345-3.345l1.225-1.224a11.171,11.171,0,0,1-1.548-3.726h-1.671a2.365,2.365,0,1,1,0-4.731h1.671a11.169,11.169,0,0,1,1.548-3.726l-1.225-1.224a2.365,2.365,0,0,1,3.345-3.345l1.225,1.224a11.172,11.172,0,0,1,3.726-1.548v-1.671a2.365,2.365,0,0,1,4.731,0v1.671a11.172,11.172,0,0,1,3.726,1.548l1.225-1.224a2.365,2.365,0,0,1,3.345,3.345l-1.224,1.224a11.175,11.175,0,0,1,1.548,3.726h1.67A2.365,2.365,0,0,1,1512.749,116.505Zm-8.516,0a6.505,6.505,0,1,0-6.505,6.5A6.512,6.512,0,0,0,1504.233,116.505Z" transform="translate(-1432.059 -58.935)" fill="url(#linear-gradient)"/>
  <path id="Path_23283" data-name="Path 23283" d="M1655.17,198.49a2.957,2.957,0,1,1-2.957,2.957A2.957,2.957,0,0,1,1655.17,198.49Zm2.247-5.909v-12.3a2.365,2.365,0,0,0-4.731,0v12.3a2.365,2.365,0,0,0,4.731,0Zm13.719,18.213a2.957,2.957,0,1,0,2.957-2.957A2.957,2.957,0,0,0,1671.136,210.794Z" transform="translate(-1608.424 -153.224)" fill="url(#linear-gradient)"/>
  <ellipse id="Ellipse_1263" data-name="Ellipse 1263" cx="1.687" cy="1.68" rx="1.687" ry="1.68" transform="translate(15.483 8.859)" fill="#8c94c9" opacity="0.127"/>
  <ellipse id="Ellipse_1264" data-name="Ellipse 1264" cx="1.687" cy="1.68" rx="1.687" ry="1.68" transform="translate(0 65.115)" fill="#97d3f1" opacity="0.127"/>
  <ellipse id="Ellipse_1265" data-name="Ellipse 1265" cx="1.687" cy="1.68" rx="1.687" ry="1.68" transform="translate(44.81 78.858)" fill="#8c94c9" opacity="0.127"/>
  <ellipse id="Ellipse_1266" data-name="Ellipse 1266" cx="1.687" cy="1.68" rx="1.687" ry="1.68" transform="translate(93.282 44.869)" fill="#97d3f1" opacity="0.127"/>
  <ellipse id="Ellipse_1267" data-name="Ellipse 1267" cx="1.687" cy="1.68" rx="1.687" ry="1.68" transform="translate(60.43)" fill="#e7e6e6" opacity="0.127"/>
  <line id="Line_1332" data-name="Line 1332" x2="8" transform="translate(3.856 31.941)" fill="none" stroke="#3dbdfe" stroke-linecap="round" stroke-width="3"/>
  <line id="Line_1335" data-name="Line 1335" x2="8" transform="translate(64.969 18.692)" fill="none" stroke="#3dbdfe" stroke-linecap="round" stroke-width="3"/>
  <line id="Line_1333" data-name="Line 1333" x2="8" transform="translate(10.856 38.941)" fill="none" stroke="#35c3fe" stroke-linecap="round" stroke-width="3"/>
  <line id="Line_1334" data-name="Line 1334" x2="8" transform="translate(74.969 24.692)" fill="none" stroke="#35c3fe" stroke-linecap="round" stroke-width="3"/>
</svg>
